# xmcd
#
# Track frame offsets: 
#        150
#        47587
#        61752
#        83305
#        97135
#        111292
#        126952
#        140220
#        162460
#        185090
#        211910
#        226195
#        247242
#        280155
#        297897
#
# Disc length: 4281 seconds
#
# Revision: 0
# Processed by: cddbd v1.5.2PL0 Copyright (c) Steve Scherf et al.
# Submitted via: ExactAudioCopy v0.99pb5
#
DISCID=e010b70f
DTITLE=The Impressions - Changing Impressions [CD2)
DYEAR=1996
DGENRE=Soul
TTITLE0=Thin Line
TTITLE1=I'm A Changed Man (Finally Got Myself Together)
TTITLE2=If It's In You To Do Wrong
TTITLE3=I'll Always Be Here
TTITLE4=Make A Resolution
TTITLE5=Something's Mighty, Mighty Wrong
TTITLE6=Sooner Or Later
TTITLE7=Same Thing It Took
TTITLE8=First Impressions
TTITLE9=Sunshine
TTITLE10=Loving Power
TTITLE11=All I Want To Do Is Make Love To You
TTITLE12=Fan The Fire
TTITLE13=I Don't Wanna Lose Your Love
TTITLE14=For Your Precious Love
EXTD=
EXTT0=
EXTT1=
EXTT2=
EXTT3=
EXTT4=
EXTT5=
EXTT6=
EXTT7=
EXTT8=
EXTT9=
EXTT10=
EXTT11=
EXTT12=
EXTT13=
EXTT14=
PLAYORDER=
